# xmcd CD database file
#
# Track frame offsets:
#	150
#	66638
#	112859
#	161531
#	195421
#
# Disc length: 3097 seconds
#
# Revision: 0
# Processed by: cddbd v1.5.2PL0 Copyright (c) Steve Scherf et al.
# Submitted via: CDex 1.51
#
DISCID=3c0c1705
DTITLE=Fredriksson Kullhammar and Zetterberg - Gyldene Tider Vol. 1
DYEAR=2005
DGENRE=Jazz
TTITLE0=One Down One Up
TTITLE1=Have Horn, Will Blow
TTITLE2=Body And Soul
TTITLE3=Apex
TTITLE4=Blessing In Disgusie
EXTD=YEAR: 2005
EXTT0=
EXTT1=
EXTT2=
EXTT3=
EXTT4=
PLAYORDER=
